<?xml version="1.0" encoding="utf-8"?>
<!-- Svg Vector Icons : http://www.onlinewebfonts.com/icon -->
<!DOCTYPE svg PUBLIC "-//W3C//DTD SVG 1.1//EN" "http://www.w3.org/Graphics/SVG/1.1/DTD/svg11.dtd">
<svg version="1.1" xmlns="http://www.w3.org/2000/svg" xmlns:xlink="http://www.w3.org/1999/xlink" x="0px" y="0px" viewBox="0 0 256 256" enable-background="new 0 0 256 256" xml:space="preserve">
<metadata> Svg Vector Icons : http://www.onlinewebfonts.com/icon </metadata>
<g><g><path fill="#000000" d="M128,54.2c-20.8,0-37.8,16.6-37.8,37.1c0,20.4,17,37.1,37.8,37.1c20.8,0,37.8-16.6,37.8-37.1C165.8,70.9,148.8,54.2,128,54.2 M128,112c-11.6,0-21-9.3-21-20.6c0-11.4,9.4-20.7,21-20.7c11.6,0,21,9.3,21,20.7C149,102.7,139.6,112,128,112 M216.4,96.8c0-47.9-39.7-86.8-88.4-86.8c-48.7,0-88.4,38.9-88.4,86.8c0,37.5,54.4,113.2,77.8,144c2.5,3.3,6.4,5.2,10.5,5.2c4.1,0,8.1-1.9,10.5-5.2C161.9,210,216.4,134.4,216.4,96.8 M129.4,227.7l-1.4,1.9l-1.4-1.9C82.4,169,54.9,118.8,54.9,96.8c0-39.6,32.8-71.8,73.1-71.8S201,57.3,201,96.8C201.1,118.8,173.6,169,129.4,227.7"/></g></g>
</svg>