<svg xmlns="http://www.w3.org/2000/svg" viewBox="0 0 592.89 566.78"><defs><style>.cls-1{fill:#ffcb00;}</style></defs><g id="Слой_2" data-name="Слой 2"><g id="Слой_1-2" data-name="Слой 1"><path class="cls-1" d="M296.34,0c13.72,0,22.93,6.88,28.83,18.84q32.47,65.84,64.91,131.68c5.18,10.56,12.89,18.08,24.58,20.21,13.66,2.48,27.48,4.13,41.24,6.12q37.82,5.47,75.65,10.93c11.65,1.7,23.3,3.43,34.92,5.29,12.41,2,21,9,24.71,20.93s1.43,23-7.78,32q-40.71,39.81-81.52,79.5c-8.46,8.25-16.7,16.73-25.34,24.78-9.85,9.18-12.87,20.4-10.67,33.23,8.3,48.31,16.8,96.58,25,144.9,2.22,13-1.17,24.37-12.28,32.32s-22.73,7.65-34.5,1.46c-42.65-22.41-85.4-44.65-127.88-67.38-13.52-7.24-26-7.32-39.56,0-41.43,22.23-83.13,44-124.83,65.72-4.89,2.55-10.28,5.11-15.64,5.64-22.86,2.27-38.24-15.92-34.17-38.75,8.57-48.07,16.76-96.21,25-144.34,2.2-12.87-1.37-23.8-11-33.13C81.17,316.3,46.75,282.26,11.9,248.65c-10.38-10-14.6-21.37-10.13-35.1,4.57-14,15.71-19.61,29.57-21.55,34.21-4.79,68.38-9.85,102.56-14.81,13.75-2,27.47-4.19,41.25-6,12.6-1.66,21.41-8.3,26.95-19.5q27-54.64,54-109.31c4.19-8.49,8.19-17.09,12.64-25.44C274.53,6,283.65,0,296.34,0Z"/></g></g></svg>