<svg xmlns="http://www.w3.org/2000/svg" viewBox="0 0 134.9 40"><defs><style>.cls-1{fill:#1e1e1e;}.cls-2{fill:#fff;}</style></defs><g id="Слой_2" data-name="Слой 2"><g id="Слой_1-2" data-name="Слой 1"><rect class="cls-1" x="0.46" y="0.2" width="134.07" height="38.59" rx="4.81"/><path class="cls-2" d="M130.2,0H4.7A4.69,4.69,0,0,0,0,4.7V35.2A4.72,4.72,0,0,0,4.7,40H130.2a4.69,4.69,0,0,0,4.7-4.7V4.7A4.69,4.69,0,0,0,130.2,0Zm0,39.1H4.7A3.8,3.8,0,0,1,.9,35.3V4.7A3.8,3.8,0,0,1,4.7.9H130.2A3.8,3.8,0,0,1,134,4.7V35.2A3.82,3.82,0,0,1,130.2,39.1Z"/><path class="cls-2" d="M30.1,19.8a5.87,5.87,0,0,1,2.8-4.9,5.87,5.87,0,0,0-4.7-2.5c-2-.2-3.9,1.2-4.9,1.2s-2.6-1.2-4.2-1.1a6.2,6.2,0,0,0-5.2,3.2c-2.3,3.9-.6,9.7,1.6,12.9,1.1,1.6,2.4,3.3,4,3.2s2.2-1,4.2-1,2.5,1,4.2,1,2.8-1.6,3.9-3.1a11.46,11.46,0,0,0,1.8-3.6C33.5,24.9,30.2,23.6,30.1,19.8Zm-3.2-9.5a5.49,5.49,0,0,0,1.3-4.1,6.58,6.58,0,0,0-3.8,1.9A5.29,5.29,0,0,0,23.1,12,4.3,4.3,0,0,0,26.9,10.3ZM53.7,31.5H51.4l-1.2-3.9H45.9l-1.2,3.9H42.5l4.3-13.3h2.6ZM49.8,26l-1.1-3.5c-.1-.4-.3-1.2-.7-2.5-.1.6-.3,1.4-.6,2.5L46.2,26Zm14.9.6a5.58,5.58,0,0,1-1.3,3.9,4.16,4.16,0,0,1-3,1.3,2.85,2.85,0,0,1-2.7-1.4v5H55.6V25.1c0-1,0-2.1-.1-3.2h1.9l.1,1.5a3.61,3.61,0,0,1,3.2-1.7A3.41,3.41,0,0,1,63.5,23,5.22,5.22,0,0,1,64.7,26.6Zm-2.2.1a4.14,4.14,0,0,0-.6-2.3,2.32,2.32,0,0,0-1.9-.9,2.39,2.39,0,0,0-1.4.5,2.48,2.48,0,0,0-.8,1.4,1.76,1.76,0,0,0-.1.6v1.6a2.79,2.79,0,0,0,.6,1.8,2.06,2.06,0,0,0,1.7.7,2.32,2.32,0,0,0,1.9-.9A4.87,4.87,0,0,0,62.5,26.7Zm13.2-.1a5.58,5.58,0,0,1-1.3,3.9,4.16,4.16,0,0,1-3,1.3,2.85,2.85,0,0,1-2.7-1.4v5H66.6V25.1c0-1,0-2.1-.1-3.2h1.9l.1,1.5a3.61,3.61,0,0,1,3.2-1.7A3.41,3.41,0,0,1,74.5,23,5.22,5.22,0,0,1,75.7,26.6Zm-2.2.1a4.14,4.14,0,0,0-.6-2.3,2.32,2.32,0,0,0-1.9-.9,2.39,2.39,0,0,0-1.4.5,2.48,2.48,0,0,0-.8,1.4,1.76,1.76,0,0,0-.1.6v1.6a2.79,2.79,0,0,0,.6,1.8,2.06,2.06,0,0,0,1.7.7,2.32,2.32,0,0,0,1.9-.9A4.87,4.87,0,0,0,73.5,26.7ZM88,27.8a3.63,3.63,0,0,1-1.2,2.8,5.22,5.22,0,0,1-3.6,1.2,6.57,6.57,0,0,1-3.4-.8l.5-1.8a5.53,5.53,0,0,0,3.1.8,3.56,3.56,0,0,0,1.9-.5A2,2,0,0,0,86,28a2,2,0,0,0-.6-1.4,5,5,0,0,0-1.8-1c-2.3-.9-3.5-2.1-3.5-3.8a3.42,3.42,0,0,1,1.2-2.7,4.83,4.83,0,0,1,3.3-1,6.68,6.68,0,0,1,3,.6L87,20.4a5.54,5.54,0,0,0-2.6-.6,2.61,2.61,0,0,0-1.8.6,1.35,1.35,0,0,0-.5,1.2,1.61,1.61,0,0,0,.6,1.3,6.49,6.49,0,0,0,1.9,1,7.19,7.19,0,0,1,2.5,1.6A2.81,2.81,0,0,1,88,27.8Zm7.1-4.3H92.8v4.7Q92.8,30,94,30a2.22,2.22,0,0,0,.9-.1l.1,1.6a4.16,4.16,0,0,1-1.7.2,2.79,2.79,0,0,1-2-.8,3.68,3.68,0,0,1-.7-2.6V23.5H89.2V21.9h1.4V20.1l2.1-.6v2.4H95A8.6,8.6,0,0,1,95.1,23.5Zm10.6,3.1a4.84,4.84,0,0,1-1.3,3.6,4.54,4.54,0,0,1-3.5,1.5,4.6,4.6,0,0,1-3.4-1.4,5.2,5.2,0,0,1-1.3-3.5,5.24,5.24,0,0,1,1.3-3.7,4.67,4.67,0,0,1,3.5-1.4,4.6,4.6,0,0,1,3.4,1.4A4.75,4.75,0,0,1,105.7,26.6Zm-2.2.1a4.38,4.38,0,0,0-.6-2.3,2,2,0,0,0-1.9-1.1,2.31,2.31,0,0,0-2,1.1,4.14,4.14,0,0,0-.6,2.3A4.38,4.38,0,0,0,99,29a2.15,2.15,0,0,0,3.8-.1A3.23,3.23,0,0,0,103.5,26.7Zm9.1-2.9c-.2,0-.4-.1-.7-.1a1.85,1.85,0,0,0-1.7.9,2.85,2.85,0,0,0-.5,1.9v5h-2.1V24.9a28.12,28.12,0,0,0-.1-3h1.9l.1,1.8h.1a3.27,3.27,0,0,1,1.1-1.5,3,3,0,0,1,1.5-.5h.5Zm9.6,2.5a3.08,3.08,0,0,1-.1,1h-6.4a2.79,2.79,0,0,0,.9,2.2,3.3,3.3,0,0,0,2.1.7,5.75,5.75,0,0,0,2.6-.5l.3,1.5a7.94,7.94,0,0,1-3.2.6,4.46,4.46,0,0,1-3.5-1.3,5.2,5.2,0,0,1-1.3-3.5,5.4,5.4,0,0,1,1.2-3.6,4.06,4.06,0,0,1,3.4-1.5,3.5,3.5,0,0,1,3.1,1.5A4.2,4.2,0,0,1,122.2,26.3Zm-2.1-.6a2.73,2.73,0,0,0-.4-1.6,1.85,1.85,0,0,0-1.7-.9,2,2,0,0,0-1.7.9,2.52,2.52,0,0,0-.6,1.7Z"/><path class="cls-2" d="M48.7,13.4H47.6L47,11.5H44.9l-.6,1.9H43.2l2.1-6.5h1.3Zm-1.9-2.7L46.3,9A5,5,0,0,1,46,7.8c-.1.2-.2.7-.4,1.2l-.5,1.7Zm7.2-2-1.8,4.7h-1L49.5,8.7h1.1l.8,2.5a5.27,5.27,0,0,1,.3,1.2,10.38,10.38,0,0,0,.3-1.2l.8-2.5Zm3.8,4.7-.1-.5a1.68,1.68,0,0,1-1.4.6,1.37,1.37,0,0,1-1.4-1.4c0-1.2,1-1.8,2.8-1.8v-.1c0-.6-.3-.9-1-.9a1.59,1.59,0,0,0-1.2.4L55.2,9a2.73,2.73,0,0,1,1.6-.4c1.2,0,1.9.6,1.9,2v1.7a3.42,3.42,0,0,0,.1,1.1Zm-.1-2.3c-1.2,0-1.7.3-1.7,1a.63.63,0,0,0,.7.7,1,1,0,0,0,1-1ZM61,7.9a.65.65,0,0,1-.6-.6.65.65,0,0,1,.6-.6c.4,0,.7.3.6.6C61.7,7.7,61.4,7.9,61,7.9Zm.6,5.5h-1V8.7h1Zm2.9,0h-1V6.6h1Zm4.4,0-.1-.5a1.68,1.68,0,0,1-1.4.6A1.37,1.37,0,0,1,66,12.1c0-1.2,1-1.8,2.8-1.8v-.1c0-.6-.3-.9-1-.9a1.59,1.59,0,0,0-1.2.4L66.3,9a2.73,2.73,0,0,1,1.6-.4c1.2,0,1.9.6,1.9,2v1.7a3.42,3.42,0,0,0,.1,1.1Zm-.1-2.3c-1.2,0-1.7.3-1.7,1a.63.63,0,0,0,.7.7,1,1,0,0,0,1-1Zm5.3,2.4a1.65,1.65,0,0,1-1.5-.8l-.1.7h-.9V6.6h1V9.5a1.65,1.65,0,0,1,1.5-.8c1.1,0,1.9,1,1.9,2.4A2,2,0,0,1,74.1,13.5Zm-.3-4.1a1.24,1.24,0,0,0-1.2,1.3v.8a1.2,1.2,0,0,0,1.1,1.2c.8,0,1.3-.6,1.3-1.7A1.29,1.29,0,0,0,73.8,9.4Zm4.9,4h-1V6.6h1Zm5.7-2.1H81.3a1.34,1.34,0,0,0,1.5,1.4,5.07,5.07,0,0,0,1.3-.2l.2.7a3.81,3.81,0,0,1-1.6.3,2.13,2.13,0,0,1-2.3-2.4,2.3,2.3,0,0,1,2.2-2.5,2,2,0,0,1,2,2.2C84.5,11,84.5,11.2,84.4,11.3Zm-.9-.7c0-.7-.4-1.2-1-1.2a1.13,1.13,0,0,0-1.1,1.2Zm7.3,2.9a2.23,2.23,0,0,1-2.3-2.4,2.26,2.26,0,0,1,2.3-2.5A2.23,2.23,0,0,1,93.1,11,2.26,2.26,0,0,1,90.8,13.5Zm0-4.1c-.8,0-1.2.7-1.2,1.7s.5,1.7,1.2,1.7S92,12,92,11.1,91.6,9.4,90.8,9.4Zm8,4h-1V10.7c0-.8-.3-1.3-1-1.3s-1,.5-1,1.2v2.8h-1V8.7h.9v.7a1.76,1.76,0,0,1,1.5-.8c1,0,1.6.8,1.6,2Zm6.8-3.9h-1.2v2.3q0,.9.6.9h.5v.8a2,2,0,0,1-.8.1c-.8,0-1.3-.5-1.3-1.6V9.5h-.7V8.7h.7V7.9l1-.3V8.8h1.2Zm5.6,3.9h-1V10.7c0-.8-.3-1.3-1-1.3a1,1,0,0,0-1,1.1v2.8h-1V6.6h1V9.4a1.6,1.6,0,0,1,1.4-.8c1,0,1.6.8,1.6,2Zm5.3-2.1h-3.1a1.34,1.34,0,0,0,1.5,1.4,5.07,5.07,0,0,0,1.3-.2l.2.7a3.81,3.81,0,0,1-1.6.3,2.13,2.13,0,0,1-2.3-2.4,2.3,2.3,0,0,1,2.2-2.5,2,2,0,0,1,2,2.2C116.6,11,116.6,11.2,116.5,11.3Zm-.9-.7c0-.7-.4-1.2-1-1.2a1.13,1.13,0,0,0-1.1,1.2Z"/></g></g></svg>