<svg xmlns="http://www.w3.org/2000/svg" width="32.169" height="26.318" viewBox="0 0 32.169 26.318">
  <g id="iconoir_sound-high" transform="translate(-1.784 -1.622)">
    <path id="Path_482" data-name="Path 482" d="M4.887,23.42l-2-4.945a1.333,1.333,0,0,1,.737-1.736l3.334-1.347a1.333,1.333,0,0,0,.6-.485l3.787-5.551a1.333,1.333,0,0,1,2.339.254l5.126,12.683A1.333,1.333,0,0,1,17.306,24.1l-6.58-1.36a1.333,1.333,0,0,0-.77.071L6.623,24.156a1.333,1.333,0,0,1-1.736-.737Z" transform="translate(0 2.679)" fill="none" stroke="#3c3c3c" stroke-width="2"/>
    <path id="Path_483" data-name="Path 483" d="M19.564,8.14a8.111,8.111,0,0,1,4,9.89m-1.787-15.1a13.8,13.8,0,0,1,6.588,7.4,13.8,13.8,0,0,1,.407,9.9" transform="translate(3.354)" fill="none" stroke="#3c3c3c" stroke-linecap="round" stroke-linejoin="round" stroke-width="2"/>
  </g>
</svg>
