<svg xmlns="http://www.w3.org/2000/svg" width="25.5" height="34" viewBox="0 0 25.5 34">
  <path id="fluent_document-text-20-regular" d="M11.712,20.2a1.062,1.062,0,0,0,0,2.125H26.587a1.062,1.062,0,1,0,0-2.125Zm0,4.25a1.062,1.062,0,0,0,0,2.125H26.587a1.062,1.062,0,1,0,0-2.125Zm0,4.25a1.062,1.062,0,0,0,0,2.125H26.587a1.062,1.062,0,1,0,0-2.125ZM6.4,7.45A4.25,4.25,0,0,1,10.65,3.2H20.4a3.188,3.188,0,0,1,2.252.935l8.319,8.317A3.187,3.187,0,0,1,31.9,14.7V32.95a4.25,4.25,0,0,1-4.25,4.25h-17A4.25,4.25,0,0,1,6.4,32.95Zm4.25-2.125A2.125,2.125,0,0,0,8.525,7.45v25.5a2.125,2.125,0,0,0,2.125,2.125h17a2.125,2.125,0,0,0,2.125-2.125v-17H22.337a3.188,3.188,0,0,1-3.187-3.187V5.325Zm11.687,8.5h7l-8.06-8.06v7a1.063,1.063,0,0,0,1.063,1.062Z" transform="translate(-6.4 -3.2)" fill="#3c3c3c"/>
</svg>
