<svg xmlns="http://www.w3.org/2000/svg" xmlns:xlink="http://www.w3.org/1999/xlink" viewBox="0 0 134.61 39.5"><defs><style>.cls-1{fill:#1e1e1e;}.cls-2,.cls-3{fill:#fff;}.cls-3{stroke:#fff;stroke-miterlimit:9.95;stroke-width:0.16px;}.cls-4{fill:url(#Безымянный_градиент);}.cls-5{fill:url(#Безымянный_градиент_2);}.cls-6{fill:url(#Безымянный_градиент_3);}.cls-7{fill:url(#Безымянный_градиент_4);}</style><linearGradient id="Безымянный_градиент" x1="33.59" y1="2159.93" x2="16.81" y2="2143.15" gradientTransform="translate(-11.74 -2097.95) scale(1 0.99)" gradientUnits="userSpaceOnUse"><stop offset="0" stop-color="#00a0ff"/><stop offset="0.01" stop-color="#00a1ff"/><stop offset="0.26" stop-color="#00beff"/><stop offset="0.51" stop-color="#00d2ff"/><stop offset="0.76" stop-color="#00dfff"/><stop offset="1" stop-color="#00e3ff"/></linearGradient><linearGradient id="Безымянный_градиент_2" x1="45.63" y1="2148.66" x2="21.44" y2="2148.66" gradientTransform="translate(-11.74 -2097.95) scale(1 0.99)" gradientUnits="userSpaceOnUse"><stop offset="0" stop-color="#ffe000"/><stop offset="0.41" stop-color="#ffbd00"/><stop offset="0.78" stop-color="orange"/><stop offset="1" stop-color="#ff9c00"/></linearGradient><linearGradient id="Безымянный_градиент_3" x1="28.29" y1="2154.68" x2="5.53" y2="2131.92" gradientTransform="translate(-11.74 -2097.95) scale(1 0.99)" gradientUnits="userSpaceOnUse"><stop offset="0" stop-color="#ff3a44"/><stop offset="1" stop-color="#c31162"/></linearGradient><linearGradient id="Безымянный_градиент_4" x1="10.76" y1="2160.13" x2="20.92" y2="2149.96" gradientTransform="translate(-11.74 -2097.95) scale(1 0.99)" gradientUnits="userSpaceOnUse"><stop offset="0" stop-color="#32a071"/><stop offset="0.07" stop-color="#2da771"/><stop offset="0.48" stop-color="#15cf74"/><stop offset="0.8" stop-color="#06e775"/><stop offset="1" stop-color="#00f076"/></linearGradient></defs><g id="Слой_2" data-name="Слой 2"><g id="Слой_1-2" data-name="Слой 1"><rect class="cls-1" x="0.19" y="0.65" width="134.07" height="38.59" rx="4.81"/><path id="path16" class="cls-2" d="M129.63.8A4.2,4.2,0,0,1,133.81,5V34.52a4.2,4.2,0,0,1-4.18,4.18H5A4.27,4.27,0,0,1,.8,34.52V5A4.2,4.2,0,0,1,5,.8H129.63m0-.8H5A4.93,4.93,0,0,0,0,5V34.52a5.06,5.06,0,0,0,5,5H129.63a4.93,4.93,0,0,0,5-5V5A4.86,4.86,0,0,0,129.63,0Z"/><g id="g18"><path id="path20" class="cls-3" d="M47.35,10.15a3.21,3.21,0,0,1-.69,2,3.14,3.14,0,0,1-4.38,0A2.93,2.93,0,0,1,41.39,10a3.06,3.06,0,0,1,3.08-3.09,2.59,2.59,0,0,1,1.19.3,2.18,2.18,0,0,1,.9.7l-.5.5a1.92,1.92,0,0,0-1.69-.7,2,2,0,0,0-1.59.7,2,2,0,0,0-.7,1.69,2.05,2.05,0,0,0,.7,1.69,2.55,2.55,0,0,0,1.59.7,2.17,2.17,0,0,0,1.69-.7,1.65,1.65,0,0,0,.5-1.19H44.37v-.9h2.88C47.25,9.85,47.35,10,47.35,10.15Z"/></g><g id="g22"><path id="path24" class="cls-3" d="M51.93,7.66H49.24V9.55h2.49v.7H49.24v1.89h2.69v.69H48.45V7h3.48Z"/></g><g id="g26"><path id="path28" class="cls-3" d="M55.11,12.83h-.79V7.66H52.63V7h4.08v.7H55v5.17Z"/></g><g id="g30"><path id="path32" class="cls-3" d="M59.79,12.83V7h.8v5.87Z"/></g><g id="g34"><path id="path36" class="cls-3" d="M64,12.83h-.8V7.66H61.48V7h4.08v.7H63.87C64,7.66,64,12.83,64,12.83Z"/></g><g id="g38"><path id="path40" class="cls-3" d="M73.42,12a3.08,3.08,0,0,1-5.27-2.19,3.09,3.09,0,0,1,5.27-2.19,2.91,2.91,0,0,1,.89,2.19A2.93,2.93,0,0,1,73.42,12Zm-3.78-.5a2.34,2.34,0,0,0,1.59.7,2,2,0,0,0,1.59-.7,2.39,2.39,0,0,0,.7-1.69,2,2,0,0,0-.7-1.69,2.34,2.34,0,0,0-1.59-.7,2,2,0,0,0-1.59.7,2.39,2.39,0,0,0-.7,1.69A2,2,0,0,0,69.64,11.54Z"/></g><g id="g42"><path id="path44" class="cls-3" d="M75.41,12.83V7h.89l2.89,4.58V7H80v5.87h-.8L76.11,8.06v4.77Z"/></g><path id="path46" class="cls-2" d="M68,21.49a4.18,4.18,0,1,0,4.28,4.18A4.1,4.1,0,0,0,68,21.49Zm0,6.66A2.59,2.59,0,0,1,68,23a2.42,2.42,0,0,1,2.39,2.59A2.41,2.41,0,0,1,68,28.15ZM58.7,21.49A4.18,4.18,0,1,0,63,25.67,4.1,4.1,0,0,0,58.7,21.49Zm0,6.66a2.59,2.59,0,0,1,0-5.17,2.41,2.41,0,0,1,2.38,2.59A2.4,2.4,0,0,1,58.7,28.15ZM47.65,22.78v1.79h4.28a3.51,3.51,0,0,1-1,2.19,4.42,4.42,0,0,1-3.29,1.29A4.62,4.62,0,0,1,43,23.28a4.69,4.69,0,0,1,4.67-4.78,4.93,4.93,0,0,1,3.29,1.3l1.29-1.3a6.41,6.41,0,0,0-4.48-1.79,6.56,6.56,0,0,0-6.66,6.47,6.63,6.63,0,0,0,6.66,6.47,5.79,5.79,0,0,0,6.17-6,3.75,3.75,0,0,0-.1-1.1C53.72,22.78,47.65,22.78,47.65,22.78Zm45.17,1.3a4,4,0,0,0-3.68-2.69,4,4,0,0,0-4,4.18,4.08,4.08,0,0,0,4.18,4.18,4.3,4.3,0,0,0,3.58-1.89l-1.49-1a2.42,2.42,0,0,1-2.09,1.19,2.24,2.24,0,0,1-2.09-1.29l5.67-2.29C93,24.57,92.82,24.08,92.82,24.08Zm-5.77,1.39A2.42,2.42,0,0,1,89.24,23a1.76,1.76,0,0,1,1.59.9C90.83,24,87.05,25.47,87.05,25.47Zm-4.58,4.08h1.89V17.31H82.47Zm-3.08-7.17a3.25,3.25,0,0,0-2.29-.89A4.25,4.25,0,0,0,73,25.67a4.19,4.19,0,0,0,4.08,4.18,2.56,2.56,0,0,0,2.19-1h.1v.6a2.26,2.26,0,0,1-4.38,1l-1.59.7a4.11,4.11,0,0,0,3.78,2.49c2.19,0,4.08-1.3,4.08-4.38V21.69H79.39ZM77.2,28.15a2.44,2.44,0,0,1-2.39-2.48,2.47,2.47,0,0,1,2.39-2.59,2.4,2.4,0,0,1,2.29,2.59A2.3,2.3,0,0,1,77.2,28.15Zm24.37-10.84H97.1V29.55H99V24.87h2.58a3.91,3.91,0,0,0,4.08-3.78A3.9,3.9,0,0,0,101.57,17.31Zm0,5.87H98.89V19h2.68a2.09,2.09,0,1,1,0,4.18Zm11.54-1.79a3.35,3.35,0,0,0-3.28,1.89l1.69.7a1.76,1.76,0,0,1,1.69-.9,1.81,1.81,0,0,1,2,1.59v.1a4,4,0,0,0-2-.5c-1.79,0-3.58,1-3.58,2.79a2.84,2.84,0,0,0,3.09,2.69,2.64,2.64,0,0,0,2.38-1.2h.1v1H117V24.77A3.6,3.6,0,0,0,113.11,21.39Zm-.2,6.76c-.59,0-1.49-.29-1.49-1,0-1,1.1-1.29,2-1.29a3.79,3.79,0,0,1,1.69.39A2.31,2.31,0,0,1,112.91,28.15Zm10.55-6.46-2.09,5.37h-.1l-2.19-5.37h-2l3.29,7.46-1.89,4.18h2l5.07-11.64Zm-16.81,7.86h1.89V17.31h-1.89Z"/><g id="g48"><path id="path64" class="cls-4" d="M10.45,7.46A2,2,0,0,0,10,8.85V30.64a1.93,1.93,0,0,0,.5,1.39l.1.1L22.88,19.9v-.3Z"/></g><g id="g66"><path id="path78" class="cls-5" d="M27,24,22.88,19.9v-.3L27,15.52l.1.1,4.87,2.78c1.4.8,1.4,2.09,0,2.89L27,24Z"/></g><g id="g80"><path id="path88" class="cls-6" d="M27.06,23.88,22.88,19.7,10.45,32c.49.5,1.19.5,2.09.1l14.52-8.25"/></g><g id="g90"><path id="path104" class="cls-7" d="M27.06,15.52,12.54,7.36a1.61,1.61,0,0,0-2.09.1L22.88,19.7Z"/></g></g></g></svg>