<svg width="927" height="927" viewBox="0 0 927 927" fill="none" xmlns="http://www.w3.org/2000/svg">
<rect x="22.6274" y="463.471" width="623.446" height="623.446" rx="311.723" transform="rotate(-45 22.6274 463.471)" stroke="white" stroke-width="32"/>
<path d="M527.676 312.074C538.117 312.295 548.466 314.089 558.372 317.393C572.348 321.8 584.782 330.086 594.224 341.286C603.665 352.486 609.725 366.137 611.696 380.647C613.565 390.763 614.484 401.032 614.441 411.318C614.441 449.886 614.441 488.37 613.859 526.938C614.009 544.593 609.039 561.915 599.55 576.809C593.163 586.712 584.597 595.027 574.505 601.121C564.414 607.214 553.063 610.924 541.319 611.969C524.042 613.688 506.687 614.493 489.326 614.38C459.212 614.38 429.098 614.38 398.984 613.465C381.314 613.615 363.978 608.65 349.071 599.169C339.704 593.165 331.761 585.189 325.798 575.8C319.835 566.411 315.996 555.834 314.548 544.808C312.537 531.296 311.48 517.658 311.387 503.997C311.387 473.741 311.387 443.403 311.387 413.064C311.062 398.689 312.885 384.345 316.794 370.507C320.827 355.891 329.045 342.77 340.44 332.758C351.834 322.746 365.909 316.279 380.932 314.152C397.777 311.617 414.817 310.615 431.843 311.159C442.242 311.159 505.964 311.159 527.676 312.074ZM338.839 501.171C338.903 514.462 339.848 527.735 341.667 540.902C342.689 550.618 346.64 559.795 352.998 567.217C359.357 574.638 367.822 579.955 377.272 582.462C386.043 584.976 395.102 586.345 404.225 586.535C434.089 587.283 464.037 587.532 493.901 587.283C509.755 587.396 525.598 586.424 541.319 584.373C551.146 583.285 560.403 579.211 567.841 572.701C575.279 566.191 580.539 557.558 582.913 547.967C585.238 539.626 586.496 531.024 586.656 522.366C587.322 489.118 587.543 456.148 587.322 423.454C587.407 410.602 586.489 397.762 584.576 385.053C583.374 375.222 579.216 365.988 572.651 358.568C566.086 351.148 557.424 345.891 547.807 343.493C539.419 341.237 530.787 340.009 522.102 339.836C494.317 339.171 466.533 339.004 438.914 339.088C423.94 339.088 409.05 339.088 394.159 340.501C381.464 340.65 369.166 344.941 359.137 352.719C353.247 357.791 348.514 364.066 345.257 371.121C342 378.175 340.293 385.845 340.253 393.614C338.922 416.638 338.423 489.201 338.839 501.171Z" fill="white"/>
<path d="M463.045 540.566C447.628 540.566 432.558 535.998 419.74 527.44C406.921 518.882 396.931 506.719 391.031 492.487C385.131 478.256 383.588 462.596 386.595 447.489C389.603 432.381 397.027 418.503 407.928 407.611C418.829 396.719 432.718 389.301 447.838 386.296C462.958 383.291 478.631 384.834 492.874 390.728C507.117 396.623 519.291 406.606 527.856 419.413C536.421 432.221 540.992 447.279 540.992 462.683C541.014 472.917 539.013 483.054 535.103 492.513C531.194 501.972 525.453 510.567 518.211 517.803C510.968 525.04 502.367 530.776 492.9 534.682C483.433 538.588 473.287 540.588 463.045 540.566ZM463.045 412.063C453.025 412.063 443.23 415.032 434.899 420.594C426.568 426.156 420.074 434.062 416.24 443.312C412.405 452.561 411.402 462.739 413.357 472.558C415.312 482.378 420.137 491.397 427.222 498.476C434.307 505.556 443.334 510.377 453.161 512.33C462.989 514.283 473.175 513.281 482.432 509.449C491.689 505.618 499.602 499.13 505.168 490.806C510.735 482.481 513.706 472.695 513.706 462.683C513.641 449.292 508.294 436.467 498.825 426.991C489.356 417.514 476.53 412.15 463.128 412.063H463.045Z" fill="white"/>
<path d="M562.443 381.732C562.46 385.359 561.396 388.91 559.388 391.931C557.379 394.953 554.517 397.309 551.165 398.701C547.812 400.093 544.121 400.457 540.561 399.747C537.001 399.038 533.733 397.286 531.172 394.715C528.61 392.145 526.872 388.871 526.178 385.311C525.484 381.75 525.866 378.064 527.274 374.721C528.682 371.378 531.054 368.528 534.087 366.536C537.12 364.543 540.678 363.496 544.308 363.529C549.112 363.594 553.7 365.535 557.089 368.937C560.478 372.34 562.4 376.932 562.443 381.732Z" fill="white"/>
</svg>
